<svg xmlns="http://www.w3.org/2000/svg" viewBox="0 0 64 64"><g data-name="25-Wallet"><path d="M63 32v9a2.006 2.006 0 0 1-2 2H47a2.006 2.006 0 0 1-2-2v-6a2.006 2.006 0 0 1 2-2h12v-3h2a2.006 2.006 0 0 1 2 2zm-11 6a2 2 0 1 0-2 2 2.006 2.006 0 0 0 2-2z" style="fill:#e03e3e"/><path d="M54.64 1 63 24.78l-4 1.43V20a2.006 2.006 0 0 0-2-2h-1.65l-2.82-8.02a3.852 3.852 0 0 1-4.93-2.36L18.48 17.96V18H10a4.524 4.524 0 0 1-.74-.06L9 17.22l34.04-12.1z" style="fill:#36ce94"/><path d="M5.1 13.97a4.987 4.987 0 0 0 4.16 3.97A4.524 4.524 0 0 0 10 18h47a2.006 2.006 0 0 1 2 2v13H47a2.006 2.006 0 0 0-2 2v6a2.006 2.006 0 0 0 2 2h12v11c0 1.21-1.79 3-4 3H41V41a2.006 2.006 0 0 0-2-2H7a2.006 2.006 0 0 0-2 2v16a4 4 0 0 1-4-4V14a6 6 0 0 1 6-6h3.21a5.147 5.147 0 0 0-5.19 4.51 4.717 4.717 0 0 0 .08 1.46z" style="fill:#febd55"/><path d="M52.53 9.98 55.35 18H18.48v-.04L47.6 7.62a3.852 3.852 0 0 0 4.93 2.36z" style="fill:#2fb380"/><circle cx="50" cy="38" r="2" style="fill:#2b2b37"/><path d="M21.62 8 41 1l2 4 .04.12L9 17.22l.26.72a4.987 4.987 0 0 1-4.16-3.97z" style="fill:#2fb380"/><path d="M21.62 8 5.1 13.97a4.717 4.717 0 0 1-.08-1.46A5.147 5.147 0 0 1 10.21 8h11.41z" style="fill:#bd6f08"/><path d="M41 57v4a2.006 2.006 0 0 1-2 2H7a2.006 2.006 0 0 1-2-2V48h36zm-5-1a2 2 0 0 0-4 0 2 2 0 1 0-2 2 2.006 2.006 0 0 0 2-2 2 2 0 0 0 4 0z" style="fill:#ff6161"/><path style="fill:#edf4fa" d="M41 45v3H5v-3h36z"/><path d="M41 41v4H5v-4a2.006 2.006 0 0 1 2-2h32a2.006 2.006 0 0 1 2 2z" style="fill:#cb3541"/><circle cx="34" cy="56" r="2" style="fill:#a81e29"/><circle cx="30" cy="56" r="2" style="fill:#edf4fa"/><path d="M39 60H28a17.992 17.992 0 0 1-16.954-12H5v13a2.006 2.006 0 0 0 2 2h32a2.006 2.006 0 0 0 2-2v-3a2 2 0 0 1-2 2z" style="fill:#e03e3e"/><path d="M11.046 48a17.872 17.872 0 0 1-.776-3H5v3h6.046z" style="fill:#c1cfe8"/><path d="M10.27 45a18.09 18.09 0 0 1-.27-3v-3H7a2.006 2.006 0 0 0-2 2v4h5.27z" style="fill:#a81e29"/><path d="m43 5-.812-1.624-30.37 10.967a2 2 0 0 1-2.536-1.138l-.261-.652L5.1 13.97a4.987 4.987 0 0 0 4.16 3.97L9 17.22l34.04-12.1z" style="fill:#2aa173"/><path d="M26.816 15H15.245L9 17.22l.26.72A4.524 4.524 0 0 0 10 18h8.48v-.04zM63 24.78 59.562 15H54.3l1.055 3H57a2.006 2.006 0 0 1 2 2v6.21z" style="fill:#2fb380"/><path style="fill:#2aa173" d="m26.816 15-8.336 2.96V18h36.87l-1.055-3H26.816z"/><path d="M62 41H52a2.98 2.98 0 0 1-2.242-1.025 1.988 1.988 0 0 1 0-3.95A2.98 2.98 0 0 1 52 35h7a2 2 0 0 0 2-2v-3h-2v3H47a2.006 2.006 0 0 0-2 2v6a2.006 2.006 0 0 0 2 2h14a2.006 2.006 0 0 0 2-2v-1a1 1 0 0 1-1 1z" style="fill:#cb3541"/><path d="M48 46h11v-3H47a1.975 1.975 0 0 1-1-.279V44a2 2 0 0 0 2 2zM5 45v-4a2.006 2.006 0 0 1 2-2h2V17.88a4.976 4.976 0 0 1-3.9-3.91 4.717 4.717 0 0 1-.08-1.46A5.147 5.147 0 0 1 10.21 8H7a6 6 0 0 0-6 6v39a4 4 0 0 0 4 4V45z" style="fill:#fc9e20"/><path d="M56 53h-8a4 4 0 0 1-4-4v-5a2 2 0 0 0-2-2h-1v15h14c2.21 0 4-1.79 4-3v-4a3 3 0 0 1-3 3z" style="fill:#fc9e20"/><path d="M44 56h2v2h-2z"/><path d="M61 29h-1v-2.088l3.335-1.185a1 1 0 0 0 .608-1.275L55.579.668A1 1 0 0 0 54.3.058L43.556 3.875 41.9.553A1 1 0 0 0 40.66.06L6.026 12.566A4.151 4.151 0 0 1 10.215 9H14V7H7a7.008 7.008 0 0 0-7 7v39a5.009 5.009 0 0 0 4 4.9V61a3 3 0 0 0 3 3h32a3 3 0 0 0 3-3V41a3 3 0 0 0-3-3H7a3 3 0 0 0-3 3v14.816A3 3 0 0 1 2 53V14a4.993 4.993 0 0 1 3.324-4.69 5.762 5.762 0 0 0-1.3 3.1A6 6 0 0 0 10 19h47a1 1 0 0 1 1 1v12H47a3 3 0 0 0-3 3v6a3 3 0 0 0 3 3h11v10c0 .6-1.267 2-3 2h-7v2h7c2.693 0 5-2.2 5-4V44h1a3 3 0 0 0 3-3v-9a3 3 0 0 0-3-3zM6 41a1 1 0 0 1 1-1h32a1 1 0 0 1 1 1v3H6zm0 5h34v1H6zm0 3h34v12a1 1 0 0 1-1 1H7a1 1 0 0 1-1-1zm18.178-32 22.909-8.14a4.866 4.866 0 0 0 4.8 2.3l2.05 5.84zM57 17h-.943l-2.585-7.351a1 1 0 0 0-1.279-.61 2.823 2.823 0 0 1-2.177-.113 2.856 2.856 0 0 1-1.472-1.642 1 1 0 0 0-.512-.57 1.007 1.007 0 0 0-.766-.04L18.2 17h-5.61l2.976-1.058-.67-1.884-6.231 2.215a.97.97 0 0 0-.416.308 3.769 3.769 0 0 1-1.905-2L40.5 2.242l1.157 2.308-21.129 7.508.67 1.884L54.025 2.278l7.7 21.9-1.725.611V20a3 3 0 0 0-3-3zm5 24a1 1 0 0 1-1 1H47a1 1 0 0 1-1-1v-6a1 1 0 0 1 1-1h12a1 1 0 0 0 1-1v-2h1a1 1 0 0 1 1 1z"/><path d="M50 35a3 3 0 1 0 3 3 3 3 0 0 0-3-3zm0 4a1 1 0 1 1 1-1 1 1 0 0 1-1 1zM16.665 13.43l2-.71.67 1.884-2 .71zM30 59a2.981 2.981 0 0 0 2-.78 3 3 0 1 0 0-4.44A3 3 0 1 0 30 59zm4-4a1 1 0 1 1-1 1 1 1 0 0 1 1-1zm-4 0a1 1 0 1 1-1 1 1 1 0 0 1 1-1z"/></g></svg>